<svg width="386" height="393" viewBox="0 0 386 393" fill="none" xmlns="http://www.w3.org/2000/svg">
<g clip-path="url(#clip0_58_69)">
<g opacity="0.7">
<path opacity="0.7" d="M202.046 210.61L201.694 210.526V197.049C215.302 193.688 227.627 186.413 237.144 176.122C246.66 165.831 252.953 152.977 255.241 139.148H255.414C258.855 139.148 261.64 133.918 261.64 127.472C261.64 123.47 260.567 119.946 258.933 117.84C259.179 115.376 259.304 112.877 259.309 110.344C259.32 100.259 257.284 90.2761 253.325 81.0009C249.367 71.7252 243.567 63.3487 236.277 56.3797C235.276 51.3965 233.491 46.6038 230.987 42.1804C225.68 32.8295 216.848 23.0969 220.45 12.9589L197.132 15.3443L196.918 -0.0179138C189.642 1.28811 186.595 9.72063 182.277 15.726C171.894 30.1698 151.058 32.1795 137.276 43.4268C132.594 47.2494 122.063 58.8725 124.043 66.4939C114.781 79.2369 109.802 94.5907 109.825 110.344C109.825 112.873 109.951 115.371 110.201 117.84C108.567 119.946 107.494 123.47 107.494 127.472C107.494 133.924 110.285 139.148 113.72 139.148H113.893C116.181 152.977 122.474 165.831 131.99 176.122C141.507 186.413 153.832 193.688 167.44 197.049V210.526L167.088 210.61C159.061 209.674 78.0514 203.489 95.8169 336.716L106.712 376.886L109.14 376.791C109.457 380.821 111.19 384.609 114.033 387.484C116.874 390.36 120.642 392.137 124.668 392.502C128.695 392.867 132.72 391.796 136.032 389.478C139.345 387.16 141.731 383.746 142.768 379.838C158.196 379.785 175.622 379.737 184.513 379.737C193.405 379.737 210.86 379.791 226.258 379.838C227.279 383.766 229.661 387.204 232.979 389.54C236.298 391.875 240.338 392.956 244.38 392.59C248.422 392.224 252.202 390.435 255.048 387.542C257.893 384.648 259.619 380.838 259.917 376.791L262.344 376.886L273.239 336.716C291.088 203.489 210.073 209.674 202.046 210.61Z" fill="url(#paint0_linear_58_69)"/>
</g>
<path d="M385.015 372.819H0V385.868H385.015V372.819Z" fill="#E0E0E0"/>
<path d="M368.698 385.874H16.3164V391.211H368.698V385.874Z" fill="#E0E0E0"/>
<path opacity="0.1" d="M368.698 385.874H16.3164V387.651H368.698V385.874Z" fill="black"/>
<path opacity="0.1" d="M115.336 373.815C115.336 373.815 166.998 373.612 184.567 373.612C202.136 373.612 253.798 373.815 253.798 373.815V366.295H115.336V373.815Z" fill="black"/>
<path d="M253.804 372.306C253.804 372.306 202.142 372.104 184.573 372.104C167.004 372.104 115.342 372.306 115.342 372.306V277.283C115.342 258.923 122.635 241.314 135.617 228.331C148.599 215.348 166.207 208.053 184.567 208.051C193.659 208.051 202.662 209.841 211.063 213.32C219.463 216.799 227.096 221.898 233.525 228.327C239.954 234.756 245.054 242.388 248.533 250.788C252.013 259.187 253.804 268.191 253.804 277.283V372.306Z" fill="#6C63FF"/>
<path d="M178.013 173.439H191.133C193.784 173.439 196.326 174.492 198.2 176.366C200.075 178.241 201.128 180.783 201.128 183.434V211.063C201.128 215.454 199.383 219.664 196.279 222.769C193.174 225.874 188.963 227.618 184.573 227.618C180.182 227.618 175.972 225.874 172.867 222.769C169.762 219.664 168.018 215.454 168.018 211.063V183.434C168.018 180.783 169.071 178.241 170.945 176.366C172.82 174.492 175.362 173.439 178.013 173.439Z" fill="#FDB797"/>
<path opacity="0.1" d="M168.012 198.522C178.887 201.198 190.247 201.198 201.122 198.522V174.942H168.012V198.522Z" fill="black"/>
<path d="M184.573 185.479C224.472 185.479 256.816 153.135 256.816 113.236C256.816 73.3377 224.472 40.9937 184.573 40.9937C144.674 40.9937 112.33 73.3377 112.33 113.236C112.33 153.135 144.674 185.479 184.573 185.479Z" fill="#333333"/>
<path d="M184.573 199.023C222.808 199.023 253.804 168.027 253.804 129.791C253.804 91.5559 222.808 60.5602 184.573 60.5602C146.337 60.5602 115.342 91.5559 115.342 129.791C115.342 168.027 146.337 199.023 184.573 199.023Z" fill="#FDB797"/>
<path d="M138.856 48.5495C152.173 37.6779 172.318 35.7397 182.354 21.773C186.529 15.9704 189.469 7.81823 196.506 6.55396L196.715 21.4033L219.251 19.0894C215.774 28.8816 224.308 38.31 229.437 47.3449C233.219 54.0273 235.286 61.5429 235.454 69.2193C227.63 73.9186 217.927 68.7899 209.214 66.0526C200.746 63.3928 191.747 63.1185 182.873 62.8681C178.323 62.7369 173.719 62.6176 169.276 63.6135C165.382 64.4901 161.738 66.2017 158.053 67.7463C152.059 70.2569 133.131 79.7271 127.561 73.6204C121.252 66.6967 133.715 52.7479 138.856 48.5495Z" fill="#333333"/>
<path opacity="0.1" d="M142.619 95.0714C146.293 97.2958 150.61 98.1725 154.862 98.7569C172.596 101.179 190.653 99.1505 207.407 92.853C210.151 99.8065 216.848 104.583 223.968 106.855C231.089 109.128 238.692 109.241 246.165 109.33C247.811 109.33 249.576 109.33 250.936 108.418C254.263 106.17 252.653 101.023 250.715 97.5046L241.072 80.0432C238.221 74.8787 235.287 69.6069 230.874 65.6948C225.34 60.7987 217.993 58.5028 210.747 57.0536C193.621 53.6463 175.939 54.2361 159.079 58.7771C141.057 63.6255 117.906 80.1148 142.619 95.0714Z" fill="black"/>
<path d="M142.619 93.5686C146.293 95.793 150.61 96.6696 154.862 97.2541C172.596 99.6765 190.653 97.6477 207.407 91.3501C210.151 98.3037 216.848 103.08 223.968 105.353C231.089 107.625 238.692 107.738 246.165 107.827C247.811 107.827 249.576 107.827 250.936 106.915C254.263 104.667 252.653 99.5202 250.715 96.0017L241.072 78.5165C238.221 73.352 235.287 68.0802 230.874 64.1681C225.34 59.272 217.993 56.976 210.747 55.5269C193.621 52.1196 175.939 52.7093 159.079 57.2504C141.057 62.1166 117.906 78.6059 142.619 93.5686Z" fill="#333333"/>
<path d="M253.053 141.08C256.379 141.08 259.076 136.026 259.076 129.791C259.076 123.556 256.379 118.502 253.053 118.502C249.726 118.502 247.029 123.556 247.029 129.791C247.029 136.026 249.726 141.08 253.053 141.08Z" fill="#FDB797"/>
<path d="M116.093 141.08C119.42 141.08 122.116 136.026 122.116 129.791C122.116 123.556 119.42 118.502 116.093 118.502C112.767 118.502 110.07 123.556 110.07 129.791C110.07 136.026 112.767 141.08 116.093 141.08Z" fill="#FDB797"/>
<path d="M200.847 210.21C200.847 210.21 288.417 196.572 270.359 332.028L259.827 370.857L229.723 369.664C229.723 369.664 249.29 324.514 237.249 294.41C225.209 264.306 200.847 210.21 200.847 210.21Z" fill="#6C63FF"/>
<path d="M168.292 210.21C168.292 210.21 80.7469 196.572 98.7807 332.028L109.312 370.857L139.417 369.664C139.417 369.664 119.85 324.514 131.891 294.41C143.931 264.306 168.292 210.21 168.292 210.21Z" fill="#6C63FF"/>
<path opacity="0.1" d="M130.388 269.9C130.388 269.9 124.365 316.416 134.902 329.959L130.388 269.9Z" fill="black"/>
<path opacity="0.1" d="M238.752 271.092C238.752 271.092 244.775 316.416 234.238 329.959L238.752 271.092Z" fill="black"/>
<path d="M240.976 386.106C250.119 386.106 257.531 378.694 257.531 369.551C257.531 360.408 250.119 352.996 240.976 352.996C231.834 352.996 224.422 360.408 224.422 369.551C224.422 378.694 231.834 386.106 240.976 386.106Z" fill="#FDB797"/>
<path d="M128.163 386.106C137.306 386.106 144.718 378.694 144.718 369.551C144.718 360.408 137.306 352.996 128.163 352.996C119.021 352.996 111.608 360.408 111.608 369.551C111.608 378.694 119.021 386.106 128.163 386.106Z" fill="#FDB797"/>
<g opacity="0.7">
<path opacity="0.7" d="M226.3 274.921H142.756C135.728 274.921 130.03 280.619 130.03 287.647V358.805C130.03 365.833 135.728 371.531 142.756 371.531H226.3C233.329 371.531 239.026 365.833 239.026 358.805V287.647C239.026 280.619 233.329 274.921 226.3 274.921Z" fill="url(#paint1_linear_58_69)"/>
</g>
<path d="M224.278 276.71H144.772C137.743 276.71 132.046 282.408 132.046 289.436V357.016C132.046 364.044 137.743 369.742 144.772 369.742H224.278C231.307 369.742 237.005 364.044 237.005 357.016V289.436C237.005 282.408 231.307 276.71 224.278 276.71Z" fill="#E0E0E0"/>
<path d="M164.505 363.14V356.157C164.508 356.057 164.489 355.957 164.449 355.864C164.409 355.772 164.35 355.689 164.275 355.623C164.2 355.556 164.111 355.506 164.015 355.476C163.919 355.447 163.818 355.44 163.718 355.453C162.725 355.472 161.746 355.689 160.838 356.091V363.122H158.87V350.193H160.832V354.463C161.838 354.07 162.906 353.854 163.987 353.825C165.776 353.825 166.438 354.922 166.438 356.425V363.134H164.493L164.505 363.14ZM170.117 358.918C170.183 361.256 170.642 361.715 172.079 361.715C173.243 361.661 174.389 361.407 175.466 360.964L175.794 362.437C174.597 363.022 173.287 363.339 171.954 363.367C168.68 363.367 168.173 361.578 168.173 358.703C168.135 357.254 168.299 355.807 168.662 354.404C169.93 353.971 171.265 353.769 172.604 353.807C175.287 353.807 176.104 355.298 176.104 357.898V358.894H170.141L170.117 358.918ZM172.604 355.465C171.838 355.452 171.071 355.506 170.314 355.626C170.182 356.262 170.111 356.909 170.099 357.558H174.19C174.19 356.199 173.946 355.465 172.604 355.465ZM179.76 356.103V363.134H177.798V355.221C179.21 354.487 180.76 354.058 182.348 353.962V355.596C181.466 355.628 180.594 355.799 179.766 356.103H179.76ZM187.513 363.367C184.585 363.367 183.261 361.93 183.261 358.638C183.261 355.155 185.008 353.831 187.513 353.831C190.441 353.831 191.765 355.268 191.765 358.56C191.765 362.043 190.012 363.367 187.513 363.367ZM187.513 355.465C186.01 355.465 185.175 356.33 185.175 358.638C185.175 361.154 185.879 361.715 187.513 361.715C189.016 361.715 189.851 360.862 189.851 358.56C189.851 356.044 189.147 355.471 187.513 355.471V355.465ZM201.229 363.134H198.921C198.377 361.599 197.545 360.182 196.47 358.96H195.438V363.134H193.518V350.193H195.48V357.618H196.399C197.376 356.573 198.158 355.361 198.706 354.04H200.913C200.196 355.5 199.252 356.836 198.116 358C199.35 359.586 200.408 361.302 201.271 363.116L201.229 363.134ZM204.909 363.361C203.12 363.361 202.458 362.264 202.458 360.761V354.064H204.402V361.017C204.399 361.117 204.418 361.218 204.458 361.31C204.498 361.402 204.557 361.485 204.632 361.552C204.707 361.618 204.796 361.668 204.892 361.698C204.988 361.727 205.089 361.735 205.189 361.721C206.215 361.703 207.227 361.486 208.171 361.083V354.064H210.157V361.948C208.576 362.87 206.781 363.36 204.95 363.367L204.909 363.361ZM204.044 346.895H164.941C164.145 346.897 163.356 346.742 162.62 346.438C161.884 346.135 161.215 345.689 160.65 345.127C160.087 344.565 159.64 343.897 159.334 343.162C159.028 342.427 158.87 341.639 158.87 340.842V289.407C158.87 288.611 159.027 287.823 159.331 287.088C159.635 286.353 160.082 285.685 160.645 285.122C161.207 284.559 161.875 284.113 162.61 283.809C163.345 283.504 164.133 283.348 164.929 283.348H204.068C204.866 283.345 205.656 283.499 206.395 283.802C207.133 284.105 207.804 284.55 208.37 285.113C208.935 285.676 209.384 286.345 209.691 287.082C209.997 287.818 210.156 288.609 210.157 289.407V340.842C210.157 341.639 210 342.427 209.695 343.162C209.39 343.898 208.943 344.566 208.38 345.129C207.816 345.691 207.148 346.138 206.412 346.442C205.676 346.746 204.888 346.902 204.092 346.901L204.044 346.895Z" fill="#6762A6"/>
<path fill-rule="evenodd" clip-rule="evenodd" d="M165.191 293.408L175.633 299.022V309.448H190.895L200.535 315.062H165.191V293.408ZM204.551 313.458V299.022L193.305 293.408V307.042L204.551 313.458ZM204.551 339.924L194.109 334.31V323.884H178.847L169.207 318.27H204.551V339.924ZM165.191 319.874V334.31L176.437 339.924V326.29L165.191 319.874Z" fill="white"/>
<path d="M216.478 350.062H152.071V364.971H216.478V350.062Z" fill="#E0E0E0"/>
<path d="M159.213 352V362.586H156.768V358.247H152.548V362.586H150.103V352H152.548V356.1H156.768V352H159.213ZM164.644 362.735C163.749 362.735 162.989 362.546 162.363 362.168C161.747 361.791 161.274 361.293 160.946 360.677C160.618 360.061 160.454 359.395 160.454 358.68C160.454 357.954 160.618 357.283 160.946 356.667C161.274 356.051 161.751 355.553 162.378 355.176C163.004 354.799 163.759 354.609 164.644 354.609C165.528 354.609 166.284 354.799 166.91 355.176C167.536 355.553 168.013 356.051 168.341 356.667C168.669 357.283 168.833 357.954 168.833 358.68C168.833 359.395 168.669 360.061 168.341 360.677C168.013 361.293 167.536 361.791 166.91 362.168C166.284 362.546 165.528 362.735 164.644 362.735ZM162.899 358.68C162.899 359.286 163.063 359.778 163.391 360.156C163.73 360.533 164.147 360.722 164.644 360.722C165.131 360.722 165.538 360.533 165.866 360.156C166.204 359.778 166.373 359.286 166.373 358.68C166.373 358.073 166.204 357.581 165.866 357.204C165.538 356.826 165.131 356.637 164.644 356.637C164.147 356.637 163.73 356.826 163.391 357.204C163.063 357.581 162.899 358.073 162.899 358.68ZM173.013 362.735C172.337 362.735 171.681 362.626 171.045 362.407C170.419 362.178 169.887 361.855 169.45 361.438L170.27 359.932C171.234 360.637 172.123 360.99 172.939 360.99C173.246 360.99 173.485 360.941 173.654 360.841C173.823 360.742 173.908 360.588 173.908 360.379C173.908 360.16 173.793 360.007 173.565 359.917C173.336 359.817 172.998 359.704 172.551 359.574C171.955 359.376 171.457 359.182 171.06 358.993C170.662 358.804 170.364 358.575 170.165 358.307C169.966 358.039 169.867 357.681 169.867 357.233C169.867 356.448 170.16 355.817 170.747 355.34C171.333 354.853 172.128 354.609 173.132 354.609C173.669 354.609 174.191 354.694 174.698 354.863C175.214 355.032 175.697 355.315 176.144 355.713L175.22 357.204C174.772 356.895 174.375 356.672 174.027 356.533C173.679 356.394 173.341 356.324 173.013 356.324C172.754 356.324 172.536 356.373 172.357 356.473C172.178 356.563 172.089 356.722 172.089 356.95C172.089 357.169 172.188 357.333 172.387 357.442C172.586 357.542 172.894 357.651 173.311 357.77C173.947 357.959 174.479 358.153 174.907 358.352C175.344 358.541 175.667 358.779 175.876 359.067C176.094 359.346 176.204 359.718 176.204 360.185C176.204 360.98 175.915 361.607 175.339 362.064C174.762 362.511 173.987 362.735 173.013 362.735ZM182.438 362.168C182.11 362.307 181.732 362.437 181.305 362.556C180.887 362.675 180.465 362.735 180.038 362.735C179.64 362.735 179.277 362.67 178.949 362.541C178.621 362.402 178.358 362.178 178.159 361.87C177.96 361.562 177.861 361.154 177.861 360.648V356.563H176.862V354.759H177.861V352.269H180.246V354.759H181.842V356.563H180.246V359.828C180.246 360.086 180.311 360.275 180.44 360.394C180.57 360.503 180.734 360.558 180.932 360.558C181.111 360.558 181.295 360.528 181.484 360.469C181.673 360.409 181.837 360.345 181.976 360.275L182.438 362.168ZM183.368 353.864V351.702H185.753V353.864H183.368ZM183.368 362.586V354.759H185.753V362.586H183.368ZM194.93 362.586H192.544V358.188C192.544 357.671 192.445 357.298 192.246 357.069C192.057 356.831 191.804 356.712 191.486 356.712C191.158 356.712 190.825 356.841 190.487 357.099C190.149 357.357 189.91 357.691 189.771 358.098V362.586H187.386V354.759H189.533V356.071C189.821 355.613 190.228 355.255 190.755 354.997C191.282 354.739 191.888 354.609 192.574 354.609C193.081 354.609 193.488 354.704 193.797 354.893C194.115 355.072 194.353 355.31 194.512 355.608C194.681 355.896 194.79 356.215 194.84 356.563C194.9 356.91 194.93 357.248 194.93 357.576V362.586ZM199.556 362.616C198.86 362.616 198.254 362.437 197.737 362.079C197.22 361.721 196.813 361.244 196.514 360.648C196.226 360.051 196.082 359.39 196.082 358.665C196.082 357.9 196.236 357.214 196.544 356.607C196.853 355.991 197.28 355.504 197.826 355.146C198.373 354.788 199.004 354.609 199.72 354.609C200.307 354.609 200.823 354.739 201.27 354.997C201.718 355.246 202.075 355.593 202.344 356.041V354.759H204.416V362.049C204.416 362.844 204.222 363.53 203.835 364.106C203.457 364.683 202.925 365.125 202.239 365.433C201.564 365.751 200.778 365.91 199.884 365.91C199.049 365.91 198.328 365.771 197.722 365.493C197.126 365.225 196.604 364.842 196.157 364.345L197.439 363.048C197.727 363.376 198.085 363.634 198.512 363.823C198.95 364.022 199.407 364.121 199.884 364.121C200.271 364.121 200.624 364.052 200.942 363.913C201.27 363.774 201.534 363.55 201.732 363.242C201.932 362.944 202.031 362.546 202.031 362.049V361.289C201.792 361.726 201.444 362.059 200.987 362.288C200.54 362.506 200.063 362.616 199.556 362.616ZM200.376 360.722C200.744 360.722 201.072 360.623 201.36 360.424C201.648 360.215 201.872 359.952 202.031 359.634V357.994C201.872 357.586 201.628 357.258 201.3 357.01C200.972 356.761 200.624 356.637 200.257 356.637C199.919 356.637 199.615 356.737 199.347 356.935C199.089 357.124 198.885 357.378 198.736 357.696C198.587 358.013 198.512 358.356 198.512 358.724C198.512 359.301 198.691 359.778 199.049 360.156C199.407 360.533 199.849 360.722 200.376 360.722ZM209.793 362.735C208.908 362.735 208.153 362.551 207.527 362.183C206.901 361.815 206.419 361.329 206.081 360.722C205.753 360.116 205.589 359.46 205.589 358.754C205.589 357.999 205.753 357.308 206.081 356.682C206.409 356.056 206.886 355.553 207.512 355.176C208.139 354.799 208.899 354.609 209.793 354.609C210.678 354.609 211.433 354.799 212.06 355.176C212.686 355.553 213.158 356.051 213.476 356.667C213.804 357.283 213.968 357.944 213.968 358.65C213.968 358.938 213.948 359.191 213.908 359.41H208.124C208.163 359.937 208.352 360.339 208.69 360.618C209.038 360.886 209.43 361.02 209.868 361.02C210.216 361.02 210.548 360.936 210.867 360.767C211.185 360.598 211.404 360.369 211.523 360.081L213.551 360.648C213.242 361.264 212.76 361.766 212.104 362.153C211.458 362.541 210.688 362.735 209.793 362.735ZM208.064 357.949H211.463C211.413 357.452 211.229 357.059 210.912 356.771C210.603 356.473 210.22 356.324 209.764 356.324C209.306 356.324 208.919 356.473 208.601 356.771C208.292 357.069 208.114 357.462 208.064 357.949ZM220.014 356.801C219.437 356.811 218.915 356.905 218.448 357.084C217.981 357.263 217.643 357.532 217.435 357.889V362.586H215.049V354.759H217.241V356.339C217.509 355.812 217.857 355.4 218.284 355.101C218.711 354.803 219.159 354.649 219.626 354.639C219.825 354.639 219.954 354.644 220.014 354.654V356.801Z" fill="#6762A6"/>
</g>
<defs>
<linearGradient id="paint0_linear_58_69" x1="184.567" y1="392.666" x2="184.567" y2="-3.26108e-05" gradientUnits="userSpaceOnUse">
<stop stop-color="#808080" stop-opacity="0.25"/>
<stop offset="0.54" stop-color="#808080" stop-opacity="0.12"/>
<stop offset="1" stop-color="#808080" stop-opacity="0.1"/>
</linearGradient>
<linearGradient id="paint1_linear_58_69" x1="33855.7" y1="60463" x2="33855.7" y2="44812.1" gradientUnits="userSpaceOnUse">
<stop stop-color="#808080" stop-opacity="0.25"/>
<stop offset="0.54" stop-color="#808080" stop-opacity="0.12"/>
<stop offset="1" stop-color="#808080" stop-opacity="0.1"/>
</linearGradient>
<clipPath id="clip0_58_69">
<rect width="385.247" height="393" fill="white"/>
</clipPath>
</defs>
</svg>
